<?xml version="1.0" encoding="UTF-8"?>
<svg id="Layer_2" data-name="Layer 2" xmlns="http://www.w3.org/2000/svg" viewBox="0 0 700.43 157.25">
  <defs>
    <style>
      .cls-1 {
        fill: #f4646e;
      }

      .cls-1, .cls-2, .cls-3, .cls-4, .cls-5, .cls-6, .cls-7 {
        stroke-width: 0px;
      }

      .cls-2 {
        fill: #f16a74;
      }

      .cls-3 {
        fill: #f56b73;
      }

      .cls-4 {
        fill: #f85e67;
      }

      .cls-5 {
        fill: #03516b;
      }

      .cls-6 {
        fill: #f95e67;
      }

      .cls-7 {
        fill: #f7616a;
      }
    </style>
  </defs>
  <g id="Layer_1-2" data-name="Layer 1">
    <g>
      <path class="cls-5" d="M252.66,68.78c-6.37,10.98-12.71,21.88-19.03,32.79-9.83,16.98-19.72,33.92-29.4,50.98-1.85,3.26-3.87,4.8-7.81,4.65-8.43-.32-16.88-.1-25.91-.1,3.22-7.87,7.82-14.19,11.67-20.89,22.44-39.06,45.18-77.96,67.45-117.12C256.89,6.31,267.31.24,281.79.43c7.66.1,15.33.23,22.98-.04,3.71-.13,5.64,1.33,7.42,4.42,15.22,26.54,30.58,52.99,45.91,79.46.82,1.42,1.73,2.79,2.77,4.45,3.45-3.48,5.13-7.67,7.34-11.46,13.82-23.7,27.61-47.41,41.14-71.27,2.37-4.18,5.04-5.64,9.82-5.6,37.14.28,74.28.2,111.43.38,22.46.11,38.11,11.71,43.3,31.8.87,3.37,1.36,6.81,1.36,10.32-.02,23.3,0,46.6-.01,69.9-.02,26.34-17.78,44.25-44.08,44.29-46.48.06-92.95.02-139.43,0-5.61,0-5.63-.04-2.85-4.91,3.55-6.2,7.29-12.31,10.67-18.6,1.63-3.03,3.64-4.1,7.12-4.09,27.15.13,54.3-.01,81.46.11,3.36.02,4.52-.65,4.5-4.26-.15-31.12-.14-62.24-.02-93.36.01-3.13-.86-3.86-3.89-3.84-18.99.14-37.98.14-56.97-.02-2.98-.02-4.41,1.17-5.78,3.55-21.09,36.58-42.29,73.1-63.39,109.67-6.02,10.44-14.95,15.7-26.96,15.76-8.66.05-17.33-.17-25.98.1-3.69.11-5.64-1.27-7.43-4.39-15.05-26.25-30.26-52.41-45.43-78.58-1.06-1.83-1.83-3.89-4.13-5.44Z"/>
      <path class="cls-5" d="M227.87.5c-5.43,9.41-10.31,17.87-15.21,26.33-24.14,41.74-48.33,83.44-72.33,125.26-2.19,3.82-4.53,5.39-8.98,5.13-7.14-.42-14.33-.32-21.48-.07-13.92.48-23.72-5.59-30.52-17.62-11.95-21.13-24.26-42.05-36.42-63.06C29.19,52.73,15.45,28.98,1.72,5.24-.93.66-.87.5,4.4.5c28.49-.03,56.97.04,85.46-.09,3.52-.02,5.33,1.32,7.02,4.26,15.14,26.39,30.43,52.69,45.68,79.02,2.95,5.1,3.02,5.12,6-.04,15.16-26.19,30.35-52.36,45.38-78.62,1.88-3.28,3.95-4.75,7.85-4.61,8.3.3,16.63.09,26.09.09Z"/>
      <path class="cls-7" d="M611.03,156.66c1.21-4.98,4.58-8.81,6.87-13.15,1.51-2.86,1.1-3.82-2.15-3.72-4.16.13-8.32,0-12.48.13-2.67.08-3.83-.76-3.82-3.7.1-34.93-.13-69.86.19-104.79.14-15.63,12.27-28.82,27.83-30.22,15.39-1.39,30.94-1.83,46.31.03,15.14,1.84,26.41,14.85,26.52,30.3.25,34.6.05,69.2.15,103.79,0,3.11-1.08,4.11-4.05,3.97-3.65-.16-7.32.04-10.99-.02-3.17-.06-3.94,1.22-2.4,3.93,1.81,3.18,3.59,6.38,5.49,9.5,1.61,2.65,1.03,3.86-2.12,4.16-4.19.4-7.68-.29-9.22-4.79-3.67-10.68-10.97-14.48-22.13-12.85-6.7.98-13.62.49-20.44.47-2.46,0-4.08.79-5.23,2.96-1.32,2.5-2.87,4.87-4.26,7.33q-4.46,7.89-14.04,6.68ZM690.53,78.58c0-15.64.09-31.27-.03-46.91-.09-11.58-7.83-20.4-19.33-21.59-14.44-1.49-28.96-.71-43.37.27-10.43.71-18.35,10.45-18.38,20.94-.07,31.6.02,63.21-.1,94.81-.01,3.6,1.25,4.45,4.61,4.42,23.97-.19,47.95-.3,71.92-.23,3.71,0,4.81-1.07,4.76-4.81-.21-15.63-.09-31.27-.08-46.9Z"/>
      <path class="cls-6" d="M621.31,56.71c0-9.99.12-19.97-.07-29.95-.06-3.38.86-4.73,4.45-4.68,10.16.16,20.32.08,30.48-.1,3.24-.06,4.32,1.05,4.3,4.33-.12,20.14-.1,40.27,0,60.41.02,3.19-1.01,4.42-4.31,4.39-10.33-.11-20.66-.08-30.98.13-3.17.06-3.94-1.14-3.9-4.07.13-10.15.05-20.3.05-30.45,0,0-.02,0-.03,0ZM641.12,31.26c-2.48,0-4.97,0-7.45,0-1.58,0-2.77.22-3.19,2.23-1.36,6.52-.02,8.33,6.59,8.37,2.98.02,5.97-.08,8.94.09,3.95.23,5.49-1.2,5.43-5.41-.05-4.05-1.16-5.86-5.35-5.32-1.63.21-3.31.03-4.96.04ZM640.49,81.19v.02c2.66,0,5.32.01,7.98,0,.98,0,2.41.11,2.52-1.03.25-2.62.6-5.43-.07-7.88-.59-2.13-3.19-1.01-4.89-1.07-3.82-.14-7.65.1-11.46-.08-2.88-.14-4.17.61-4.16,3.83.02,6.26-.17,6.26,6.11,6.22,1.33,0,2.66,0,3.99,0ZM640.92,61.36v-.05c2.32,0,4.66-.17,6.96.04,3.68.33,3.61-2.05,3.38-4.45-.23-2.33,1.32-5.76-3.25-5.71-4.64.05-9.29.16-13.93-.03-2.97-.12-3.59,1.22-3.65,3.86-.14,6.36-.25,6.36,6.01,6.35,1.49,0,2.99,0,4.48,0Z"/>
      <path class="cls-4" d="M641.02,110.12c5.16,0,10.32.14,15.48-.05,3.09-.11,4.14,1.07,3.98,4.07-.14,2.6.15,5.07-3.67,5.05-10.82-.04-21.64.01-32.45.15-3.46.04-3.07-2.24-3.02-4.4.05-2.25-.57-4.86,3.22-4.77,5.49.13,10.98.03,16.48.03,0-.02,0-.05,0-.07Z"/>
      <path class="cls-1" d="M680.38,30.74c.02,6.36-1.67,9.68-4.98,9.05-5.37-1.02-4.22-5.53-4.17-9.16.04-3.42-1.21-8.2,4.3-8.3,5.71-.1,4.75,4.7,4.85,8.41Z"/>
      <path class="cls-3" d="M680.36,66.05c.53,3.41-.23,5.39-4.34,5.26-3.51-.12-5.59-.5-5.47-4.87.1-3.87,1.22-5.25,5.18-5.22,3.67.03,5.39,1.06,4.63,4.83Z"/>
      <path class="cls-2" d="M675.43,55.21c-2.51-.11-4.04-1.67-4.13-4.31-.09-2.69,1.48-4.41,4.19-4.47,2.89-.06,4.79,1.68,4.7,4.53-.08,2.51-1.69,4.2-4.76,4.24Z"/>
    </g>
  </g>
</svg>